# MagicaVoxel @ Ephtracy

# group
g PowerSupply

# material
mtllib PowerSupply.mtl
usemtl palette

# normals
vn -1 0 0
vn 1 0 0
vn 0 0 1
vn 0 0 -1
vn 0 -1 0
vn 0 1 0

# texcoords
vt 0.841797 0.5
vt 0.919922 0.5
vt 0.958984 0.5
vt 0.986328 0.5
vt 0.994141 0.5

# verts
v -10 0 5
v -10 0 -5
v -10 1 5
v -10 1 3
v -10 2 3
v -10 2 2
v -10 18 3
v -10 18 2
v -10 19 5
v -10 19 3
v -10 20 5
v -10 20 -5
v -8 5 3
v -8 5 2
v -8 8 3
v -8 8 2
v -7 4 3
v -7 4 2
v -7 5 3
v -7 5 2
v -7 8 3
v -7 8 2
v -7 9 3
v -7 9 2
v 3 5 3
v 3 5 2
v 3 8 3
v 3 8 2
v 4 4 3
v 4 4 2
v 4 5 3
v 4 5 2
v 4 8 3
v 4 8 2
v 4 9 3
v 4 9 2
v -4 4 3
v -4 4 2
v -4 5 3
v -4 5 2
v -4 8 3
v -4 8 2
v -4 9 3
v -4 9 2
v -3 5 3
v -3 5 2
v -3 8 3
v -3 8 2
v 7 4 3
v 7 4 2
v 7 5 3
v 7 5 2
v 7 8 3
v 7 8 2
v 7 9 3
v 7 9 2
v 8 5 3
v 8 5 2
v 8 8 3
v 8 8 2
v 10 0 5
v 10 0 -5
v 10 1 5
v 10 1 3
v 10 2 3
v 10 2 2
v 10 18 3
v 10 18 2
v 10 19 5
v 10 19 3
v 10 20 5
v 10 20 -5
v -10 0 5
v -10 1 5
v -10 19 5
v -10 20 5
v 10 0 5
v 10 1 5
v 10 19 5
v 10 20 5
v -10 1 3
v -10 2 3
v -10 18 3
v -10 19 3
v -8 5 3
v -8 8 3
v -7 4 3
v -7 5 3
v -7 8 3
v -7 9 3
v -4 4 3
v -4 5 3
v -4 8 3
v -4 9 3
v -3 5 3
v -3 8 3
v 3 5 3
v 3 8 3
v 4 4 3
v 4 5 3
v 4 8 3
v 4 9 3
v 7 4 3
v 7 5 3
v 7 8 3
v 7 9 3
v 8 5 3
v 8 8 3
v 10 1 3
v 10 2 3
v 10 18 3
v 10 19 3
v -10 2 2
v -10 18 2
v -8 5 2
v -8 8 2
v -7 4 2
v -7 5 2
v -7 8 2
v -7 9 2
v -7 13 2
v -7 14 2
v -6 12 2
v -6 13 2
v -6 14 2
v -6 15 2
v -5 12 2
v -5 13 2
v -5 14 2
v -5 15 2
v -4 4 2
v -4 5 2
v -4 8 2
v -4 9 2
v -4 13 2
v -4 14 2
v -3 5 2
v -3 8 2
v 3 5 2
v 3 8 2
v 4 4 2
v 4 5 2
v 4 8 2
v 4 9 2
v 4 13 2
v 4 14 2
v 7 4 2
v 7 5 2
v 7 8 2
v 7 9 2
v 7 13 2
v 7 14 2
v 8 5 2
v 8 8 2
v 10 2 2
v 10 18 2
v -10 0 -5
v -10 20 -5
v 10 0 -5
v 10 20 -5
v -10 0 5
v 10 0 5
v -10 0 -5
v 10 0 -5
v -7 4 3
v -4 4 3
v 4 4 3
v 7 4 3
v -7 4 2
v -4 4 2
v 4 4 2
v 7 4 2
v -8 5 3
v -7 5 3
v -4 5 3
v -3 5 3
v 3 5 3
v 4 5 3
v 7 5 3
v 8 5 3
v -8 5 2
v -7 5 2
v -4 5 2
v -3 5 2
v 3 5 2
v 4 5 2
v 7 5 2
v 8 5 2
v -10 18 3
v 10 18 3
v -10 18 2
v 10 18 2
v -10 19 5
v 10 19 5
v -10 19 3
v 10 19 3
v -10 1 5
v 10 1 5
v -10 1 3
v 10 1 3
v -10 2 3
v 10 2 3
v -10 2 2
v 10 2 2
v -8 8 3
v -7 8 3
v -4 8 3
v -3 8 3
v 3 8 3
v 4 8 3
v 7 8 3
v 8 8 3
v -8 8 2
v -7 8 2
v -4 8 2
v -3 8 2
v 3 8 2
v 4 8 2
v 7 8 2
v 8 8 2
v -7 9 3
v -4 9 3
v 4 9 3
v 7 9 3
v -7 9 2
v -4 9 2
v 4 9 2
v 7 9 2
v -10 20 5
v 10 20 5
v -10 20 -5
v 10 20 -5

# faces
f 3/4/1 2/4/1 1/4/1
f 4/4/1 2/4/1 3/4/1
f 5/4/1 2/4/1 4/4/1
f 6/4/1 2/4/1 5/4/1
f 8/4/1 2/4/1 6/4/1
f 10/4/1 8/4/1 7/4/1
f 11/4/1 10/4/1 9/4/1
f 12/4/1 2/4/1 8/4/1
f 12/4/1 10/4/1 11/4/1
f 12/4/1 8/4/1 10/4/1
f 15/1/1 14/1/1 13/1/1
f 16/1/1 14/1/1 15/1/1
f 19/1/1 18/1/1 17/1/1
f 20/1/1 18/1/1 19/1/1
f 23/1/1 22/1/1 21/1/1
f 24/1/1 22/1/1 23/1/1
f 27/2/1 26/2/1 25/2/1
f 28/2/1 26/2/1 27/2/1
f 31/2/1 30/2/1 29/2/1
f 32/2/1 30/2/1 31/2/1
f 35/2/1 34/2/1 33/2/1
f 36/2/1 34/2/1 35/2/1
f 37/1/2 38/1/2 39/1/2
f 39/1/2 38/1/2 40/1/2
f 41/1/2 42/1/2 43/1/2
f 43/1/2 42/1/2 44/1/2
f 45/1/2 46/1/2 47/1/2
f 47/1/2 46/1/2 48/1/2
f 49/2/2 50/2/2 51/2/2
f 51/2/2 50/2/2 52/2/2
f 53/2/2 54/2/2 55/2/2
f 55/2/2 54/2/2 56/2/2
f 57/2/2 58/2/2 59/2/2
f 59/2/2 58/2/2 60/2/2
f 61/4/2 62/4/2 63/4/2
f 63/4/2 62/4/2 64/4/2
f 64/4/2 62/4/2 65/4/2
f 65/4/2 62/4/2 66/4/2
f 66/4/2 62/4/2 68/4/2
f 67/4/2 68/4/2 70/4/2
f 69/4/2 70/4/2 71/4/2
f 68/4/2 62/4/2 72/4/2
f 71/4/2 70/4/2 72/4/2
f 70/4/2 68/4/2 72/4/2
f 77/4/3 74/4/3 73/4/3
f 78/4/3 74/4/3 77/4/3
f 79/4/3 76/4/3 75/4/3
f 80/4/3 76/4/3 79/4/3
f 88/1/3 86/1/3 85/1/3
f 89/1/3 86/1/3 88/1/3
f 91/1/3 88/1/3 87/1/3
f 92/5/3 89/5/3 88/5/3
f 92/1/3 88/1/3 91/1/3
f 93/1/3 90/1/3 89/1/3
f 93/5/3 89/5/3 92/5/3
f 94/1/3 90/1/3 93/1/3
f 95/1/3 93/1/3 92/1/3
f 96/1/3 93/1/3 95/1/3
f 100/2/3 98/2/3 97/2/3
f 101/2/3 98/2/3 100/2/3
f 103/2/3 100/2/3 99/2/3
f 104/5/3 101/5/3 100/5/3
f 104/2/3 100/2/3 103/2/3
f 105/2/3 102/2/3 101/2/3
f 105/5/3 101/5/3 104/5/3
f 106/2/3 102/2/3 105/2/3
f 107/2/3 105/2/3 104/2/3
f 108/2/3 105/2/3 107/2/3
f 109/4/3 82/4/3 81/4/3
f 110/4/3 82/4/3 109/4/3
f 111/4/3 84/4/3 83/4/3
f 112/4/3 84/4/3 111/4/3
f 115/4/3 114/4/3 113/4/3
f 116/4/3 114/4/3 115/4/3
f 117/4/3 115/4/3 113/4/3
f 118/4/3 115/4/3 117/4/3
f 119/4/3 114/4/3 116/4/3
f 120/4/3 114/4/3 119/4/3
f 121/4/3 114/4/3 120/4/3
f 122/4/3 114/4/3 121/4/3
f 123/4/3 121/4/3 120/4/3
f 124/3/3 122/3/3 121/3/3
f 124/4/3 121/4/3 123/4/3
f 125/4/3 114/4/3 122/4/3
f 125/3/3 122/3/3 124/3/3
f 126/4/3 114/4/3 125/4/3
f 127/3/3 124/3/3 123/3/3
f 127/4/3 123/4/3 120/4/3
f 127/3/3 126/3/3 125/3/3
f 127/3/3 125/3/3 124/3/3
f 128/3/3 126/3/3 127/3/3
f 129/3/3 126/3/3 128/3/3
f 130/4/3 114/4/3 126/4/3
f 130/3/3 126/3/3 129/3/3
f 131/4/3 117/4/3 113/4/3
f 134/4/3 127/4/3 120/4/3
f 134/4/3 128/4/3 127/4/3
f 135/3/3 129/3/3 128/3/3
f 135/4/3 128/4/3 134/4/3
f 136/4/3 130/4/3 129/4/3
f 136/3/3 129/3/3 135/3/3
f 137/4/3 132/4/3 131/4/3
f 138/4/3 134/4/3 133/4/3
f 138/4/3 135/4/3 134/4/3
f 138/4/3 136/4/3 135/4/3
f 139/4/3 137/4/3 131/4/3
f 139/4/3 138/4/3 137/4/3
f 140/4/3 136/4/3 138/4/3
f 140/4/3 138/4/3 139/4/3
f 141/4/3 139/4/3 131/4/3
f 141/4/3 131/4/3 113/4/3
f 142/4/3 139/4/3 141/4/3
f 143/4/3 136/4/3 140/4/3
f 144/4/3 136/4/3 143/4/3
f 145/4/3 136/4/3 144/4/3
f 146/4/3 130/4/3 136/4/3
f 146/4/3 136/4/3 145/4/3
f 147/4/3 141/4/3 113/4/3
f 150/4/3 145/4/3 144/4/3
f 151/3/3 146/3/3 145/3/3
f 151/4/3 145/4/3 150/4/3
f 152/4/3 130/4/3 146/4/3
f 152/3/3 146/3/3 151/3/3
f 153/4/3 148/4/3 147/4/3
f 154/4/3 151/4/3 150/4/3
f 154/4/3 150/4/3 149/4/3
f 154/4/3 152/4/3 151/4/3
f 155/4/3 153/4/3 147/4/3
f 155/4/3 154/4/3 153/4/3
f 155/4/3 147/4/3 113/4/3
f 156/4/3 152/4/3 154/4/3
f 156/4/3 154/4/3 155/4/3
f 156/4/3 114/4/3 130/4/3
f 156/4/3 130/4/3 152/4/3
f 157/4/4 158/4/4 159/4/4
f 159/4/4 158/4/4 160/4/4
f 163/4/5 162/4/5 161/4/5
f 164/4/5 162/4/5 163/4/5
f 169/1/5 166/1/5 165/1/5
f 170/1/5 166/1/5 169/1/5
f 171/2/5 168/2/5 167/2/5
f 172/2/5 168/2/5 171/2/5
f 181/1/5 174/1/5 173/1/5
f 182/1/5 174/1/5 181/1/5
f 183/1/5 176/1/5 175/1/5
f 184/1/5 176/1/5 183/1/5
f 185/2/5 178/2/5 177/2/5
f 186/2/5 178/2/5 185/2/5
f 187/2/5 180/2/5 179/2/5
f 188/2/5 180/2/5 187/2/5
f 191/4/5 190/4/5 189/4/5
f 192/4/5 190/4/5 191/4/5
f 195/4/5 194/4/5 193/4/5
f 196/4/5 194/4/5 195/4/5
f 197/4/6 198/4/6 199/4/6
f 199/4/6 198/4/6 200/4/6
f 201/4/6 202/4/6 203/4/6
f 203/4/6 202/4/6 204/4/6
f 205/1/6 206/1/6 213/1/6
f 213/1/6 206/1/6 214/1/6
f 207/1/6 208/1/6 215/1/6
f 215/1/6 208/1/6 216/1/6
f 209/2/6 210/2/6 217/2/6
f 217/2/6 210/2/6 218/2/6
f 211/2/6 212/2/6 219/2/6
f 219/2/6 212/2/6 220/2/6
f 221/1/6 222/1/6 225/1/6
f 225/1/6 222/1/6 226/1/6
f 223/2/6 224/2/6 227/2/6
f 227/2/6 224/2/6 228/2/6
f 229/4/6 230/4/6 231/4/6
f 231/4/6 230/4/6 232/4/6
